<svg width="36" height="35" viewBox="0 0 36 35" fill="none" xmlns="http://www.w3.org/2000/svg">
<path d="M14.613 21.6453C15.1037 22.1866 15.9484 22.2279 16.489 21.7379L17.8822 20.4733C18.4233 19.9827 18.4654 19.1391 17.9737 18.5979L11.5057 11.4645C11.0151 10.9233 10.1709 10.8825 9.62967 11.3731L8.23639 12.6371C7.69514 13.1283 7.65307 13.9706 8.1444 14.5118L14.613 21.6453Z" fill="#000"/>
<path d="M26.748 10.6418C27.2392 11.183 28.0828 11.2244 28.6247 10.7345L30.0185 9.46918C30.5592 8.98042 30.6006 8.1357 30.1094 7.59318L23.6414 0.460547C23.1508 -0.0801189 22.3066 -0.121619 21.7655 0.36856L20.3721 1.6333C19.8308 2.12391 19.7895 2.96863 20.2801 3.50987L26.748 10.6418Z" fill="#000"/>
<path d="M34.9938 25.5014L25.4851 15.0167C25.2395 14.7461 24.8171 14.7253 24.5471 14.971L24.3831 15.1196L23.0306 13.627L26.0629 10.8759L19.9802 4.16797L12.1909 11.2306L18.2743 17.939L21.3077 15.1885L22.6615 16.6817L22.4975 16.8298C22.2262 17.0753 22.2061 17.4971 22.4517 17.7683L31.961 28.2525C32.2055 28.523 32.6278 28.5444 32.8984 28.2988L34.9474 26.4399C35.2181 26.1944 35.2389 25.7726 34.9938 25.5014Z" fill="#000"/>
<path d="M22.3423 30.231H2.56011C1.42213 30.231 0.499359 31.1531 0.499359 32.2916C0.499359 33.4302 1.42213 34.3523 2.56011 34.3523H22.3424C23.4804 34.3523 24.4032 33.4302 24.4032 32.2916C24.4031 31.1531 23.4803 30.231 22.3423 30.231Z" fill="#000"/>
<path d="M1.2475 12.5098L4.18224 11.3554L0.896362 8.62797L5.18788 9.29229L4.39917 3.80762L7.84893 7.22989L8.98991 3.99231L9.79616 8.42817L9.40366 8.59018L8.95696 6.28704L8.15357 8.5628L5.4329 5.86346L6.05944 10.215L3.07293 9.60676L5.79545 11.6535L3.9298 12.1904L5.68335 12.3202H5.68463L5.71558 12.8054L1.2475 12.5098Z" fill="#000"/>
</svg>
